<mxfile host="app.diagrams.net" modified="2021-07-13T13:05:41.784Z" agent="5.0 (Windows NT 10.0; Win64; x64) AppleWebKit/537.36 (KHTML, like Gecko) Chrome/91.0.4472.124 Safari/537.36" etag="tUa5oexLmZYKUN5AzBfe" version="14.8.6" type="github">
  <diagram id="1iAfnXCfLlzTQEmagdT9" name="Page-1">
    <mxGraphModel dx="1201" dy="493" grid="1" gridSize="10" guides="1" tooltips="1" connect="1" arrows="1" fold="1" page="1" pageScale="1" pageWidth="850" pageHeight="1100" math="0" shadow="0">
      <root>
        <mxCell id="0" />
        <mxCell id="1" parent="0" />
        <mxCell id="ePm8Xnh-taZD7xGUpZaN-2" value="" style="shape=image;verticalLabelPosition=bottom;labelBackgroundColor=#ffffff;verticalAlign=top;aspect=fixed;imageAspect=0;image=data:image/png,iVBORw0KGgoAAAANSUhEUgAAAGsAAABnCAYAAAAHfbx3AAAgAElEQVR4Ae2d93MUV7bH95/Ztb3r2li2d11v94d9G94P63q2a9d+BmxjGwx418ZgDCaaHAwIEyWBAkpICAWEMkkChAIiSEgo55xQzhKcV58r7tC0e2Z6pJGAKt+qoXtGPdO3z/eec74ndPMT+XE8NxL4yXMz0x8nKs8sWJMPH8rA2KQ0D4zJva4hyW7ul4v1vZJS0yNnK+9LTHmXnC7rlNB7HXKyuF0iSzslruK+JNV0q+OuNvVJXuuA3OkYlIruYWkbHJfhiQfPNeTPDFiAMzb5UAn0/siE1PWNys22AUmt6ZbQe+3ic7NZtmQ3yNpr9bIio1b+fbFalpyvkg9TK2RBcoUsTq+SLy7XyJqrdeq47240yeHbLXLibpsC9UJdjxR2DEpD/6h0Do/LwPikjD94KA8fPj/4PTNgIby2oXGp7h2VtNoeOXS7Rb7OrJXPLlTLp+er5OO0SlmYWqnAeT9lCiBAmpdUrl7zk8uFzz9IqVDHcfwn6ZUKRED97GK1AnL/zWY5W3VfCjoGFWgTD54ftJ4aWKzonpEJ6Rgal97RCekfm1SvruEJuds5JHEVXbL6Sp0S/HtJ5eKN14cpFQq0Tdcb5PtbLcqEptR0S37rgNLkoYkH8ixDN6dgIQhMD0LB1N1uG5Tcln7lU/pGJx32aHTygdT0jsixglZZmVGrtGVesncAM4KOFi6/XKNMbFL1fanqGZG+sUnh/A+eQfs4p2BhcpoHx5TjP13WJdtzG2VffrNcquuVlsExB1hYJoTGig8uapdVmbXyUVqlV7TLCBYLAJ+HmeQcfoWtcr6uRyq7R5SWOyb0jOzMOlgIHuLQMTwuJV1DklzTrTQGorAovVK+uFSj3ue3DSiAtAsBWExiTku/IglfX6mbFcA0ePi/Ly/XyJ4bTRJR2qk0vrF/VAbHH8iz4tdmHayxB1NAYe5Cittl/bV65fS1kCANsLiosk4p7x5RZtK4kAEZCn74Tqt8mVEzY+2CkEBGAAdCokkJJhEtW3y+Sp3n6J1WgUHCHiE/z4Ivm1WwJh88lNbBMYmr7BKoNCsXbUJAGiwEtzC1QjZnN0h85X1lfoyCGZ18KJ3DEwowv8I2JVC+o7/v6RZAPr9UrRbNztxGpUmEBUfutCoNDi5uV8QjqrRTxXPpdT1S3j2sANNab1xMc7k/K2ARMw2OT0p936hkNPSquAf67Uqw+A38V3HXkDKHRiHg7DGJVxr7ZFtOoyy9UK3ouqvf075oRUaNrL32OPZCY8JLOiSh6r7SHOaXRQDdMiAF7YNyt2NIxWP4S0xwVnOfIh4Qot7RKfJhnNtc7s8KWLA9gloEgnCJeVwJVv8Ncxh2r13K7g//QAZoW/vQuBIsWjg/+bF26u8bt8suVMvWnAYJLGoX6Pmt9gGVDSGLgcazANAU4wsCqF/Gz0cmHijtrugeUdsfTG6OPvA6WLC40vvDElvRJZgZtAD/YBSks/2PUisVK+O7+AootHEgNACDpPDbT5pTzFuN7MhtlJB77YrVEfjC7JoGxlSoAFDToeRYCr5LTNgyOK7mQAgy18NrYLEiYU0I5lJ9r8NcOQPG1ecInCxG6+C4YpJGoSCi2r5RSazulm+u1ik/SCz27fUG8S9sU9+r6BmW3rHHcZvx+9PdB2S9WDDvkA5AnMvhNbBYaX1jE8oZk2TFR02XCBBTbciqV8lbfJV5sCga+8ckqbpbJXDjK7uUNsMcMcHMZTYWPtigYd0jE8qH4pfncngNLC6CwFabQLt+ykrDoNeAfeBms1xt7FMM0RzrAAorHDNX2zuiVrr5mOkIEl1Bi3SusrJnRIo6h1RSmcw/VgMzjGbfbh9URAofOBdjxmAxTYJe8nuNA6NKsyhhzAQsAEQr+Q3YGyUSfOFsWB3kjG8kNwnjI9TAzOLvLjf0ypnyLpVFOXK7RYUfW7MbZH1WvXrBKqt7RhRgzwVY2G1qTmgVF13fP8UCZwqWBozYjAw8DNFMOGYqIIDCIqChaE1MRZeKtzZer1dJZM5NKQZmiaYTI3JdECFeJIQBk0zHdIiLp/OfkWZhiijqkXRly4BgQNm9ARaAkWilLkVg6g0GhhXoGh5XyWPiqMSqblW8pHSCn/zPpWrFMu0kjokNqbER/8EUZ3vMCCy0iWASu44JYbQMjEli9czBgu4DOMle/APmabqrl+8BEoRgKpHcr/J/W3MaZVF6ldsA28qv6s8Ivo8Xtin/Nduua0Zg3WobFN+CVinpGlbmBLCw/ZmNfcpk6AvydLsgpUL+c6lGgoraVRaB2Gq6JhCgYG/UyDBzpJbIT6KxVJftxoDOroHvk7GnigC1n006Py2wmBAOH+q89mqdYkuaEWGqSNVg5z2l7mQl0KaNWfVysrhDOXmtsZ6aGOYB6SF9RcxGeR+Q8Dt2TJwzcMyfw1xJRu+90SzFnUPSY6jLeTpnd8dPCyxWUFn3sBy/26ZqQeTTjAOqS6CKiTBfnKv3XPTKzFrlR4ivZkLFdSbl4O0WWXbBdV7S1Zzs/o2+ECwBLmG2xrTAoqrLat2e02gJFt1Eu/IalXbZvVicNZmLC/U9Kq9Itn0mVJ3SDI0xdECRyEUD7M5lOsfBFrEIWU39qitrJnN3BrbHYOE7iEP8ClpVqgch32kffCJjQF6PFrHVV2rdCoj8Hk5+T16TJFd3KwF7yvqI9dBCIwGZiv8eCEVNVjw0fDaqzRpYrgPA6B2Bymu34Ezw0/ncY7Bw9vTk4aso2DFBfBRsSw/8DGUHNEVfjLMtxT4o87WmPrUip+Og+Q7ExkxCmBHAQ/upU32V6X7xOJunnc/xhbQGkNkwykPLZaZbj8EinUTkTjyCaUHYsD9qPXoQaLK6YIqsOCsTxIXRHrY/fyqlRBjgCVAAwfHVvSMq0xBW0qHmYZX8BUiC6lMlHYpksMjsCH86xxAOUJJBBt4eHoGFgIj06VPAdHExsCtyZQhbD+INVlZ0WZcCBPMDy4MqczwvzCcM6kJdr7owownTv+Nsi4kBAGpm9AASi6HhVKMv1/eqJK+VsOgBoQJMP6K3gnYzoIQEmF2si7dNoW2wAOrBg4eKWHx9pVaV4pkoF40TN7MgHCyRPYCsuVInm67XK5ApRvL6Lr9JNaUQA3kaTAIUfvLgrRZH5xO0/5P0KlU2wW+Y5wPwsFj8LblLyIBZ0N54jzx25zWphDbz9OawDRarZHBsUgGD6dPBJHT72J1W5bfME4No0ChDjzqmUpXJm/qVP+NzShqemD7SW6Sz0MbDt1tVLwX9G1rImNupnF29nCrtkMLOQekZnXii2YXfID0GYCyaT9IqLc20/k1Pt8iFeI6FqlNwZrlM971tsHDepJJIrRgvAPtPfgwqj+DRQG8PNA+twOxdrOtRzTXu/M7KjBrxL2yVoq4hR/nESKdZSMx53bV6BRiaaeVbjddqd58Yk2o3i8KbwzZYqDQsh3SNcdKsJOw0pAOS4SntdncxAIX/KewYUoXGddfqlH9yl4UgIIcEARjsFRYL4HqMTE5pKf52b36TLL1Q9USbgPEaPd2nvSCwqE31SerzeWNrGywyCnSrYjqMk0do2GnqTpAMK8c+3YkCFEK+0ToVK2FeAMFuGovjWOX4NkCp6R2VscnH/exYC6Wt9b1y+E6LI+POOWCqZCWg+zTyQIjcNelouZBqY1HjV705bIMFJYZJEV/pSektgLE6a/u8V4jTGoWfg97TeKPP5+mWxbQqs07oAcRPEkAbzTUkB6tBXAhIWAoYLz0dAXfbVD0NUw/jxPy6WyywXo7HL3tz2AaLAh0rFBU3CouJU6AjYzHkxVZjkrDEK3vzm5UA3fko45zM+5hqAKOphpvu0DBj/wRhhgYsu6VfAUfuE59T2zuq+gbJd0IaCHrpDHaV9+RvtIXTk+jNYRssJr4zt0mZA6MwuI0GqurtiWH+EAwmyHi+mezDXOmIorpLyYQFodko5AMTjl8j5jNqHgLnOPoy6D/kTkvCERaA1Xwwl8SWVCWU2TX/2DQR9AisHblNyhQYJ8gNa9Bg2JU3x2yAxbyplTFnSiZoi6c+duLhQ2kbGlOAUccyysK8j9ugKj2T6oFRprbBojFkS/ZUZdU4KWIuOpAoSXhzEB/RHvBtdoNLgRjnYmcfeo5ZhHjQBMNND/gxuwMlAWDqZPgztNUZ8eBmCzIZcw4WN5ph8wkitVC4aHwYrMdbE9JCw+TgP8yhgj63N7b4WkyiVbZDz8Nqi8nEXNKWBmMkELeaz1MDiwsiRWO00+T4+IwkqZfMskM2rF7MFHc/WgnCG5/B/CJLO1RW3nFimzsAxg3lkC5+x2o+kBlqat5ayLbNIGAR5xhrQgDHZ2TivT1YuZQ28C1WgvDGZ1gFbk+F6U5n0HtCRsfMkPXcyJnCMp8OWFlP3n0IRSVopPfAmMqZzoWbvwNYVJxnEywKkrBYyMx0hjuwaCMn86MZ53TOYfyObc1SPiu7QTEpvXIIhonW6XIaNxQfjSeY7j4xG4EqPYP6fN7ezhQsUmAHXJhByjfEcN5ayLbBorRAvQhwjEIjWqeGhLp7c8AuceC78pqeOJ/x3DPdx3zRk0jKyc54yJ0kIyPS29urXterW2TP1XL5LLlY5ifc+8E8+W0yMd4atsHirg2/gjbhTkKjkGCH0eVdKsr31ry4QOg0Np+suPF8nuzPSyKT7vy17EKNBN/rkKKuYSVUV/MHqImJCWlvb5eysjL1Ss0rkN1J2fJlTLZ8FHvLca75SVMPVSED481hGyyVG3zUKWQUGH6LlFBmQ59ypN5YSdj54q5hRduh18bzeXP/k7QqVWUmZ0g85KpiMDY2poDKy8uT2NhY9Qo7fUaOhkWJT9gZWXf6koq3WBzEXqSkMhufUroJCspKIUFpFBix1pcZtRJS3OG4DXSmq4lGSZ1YJeg2ns+b+/SHYAoJD4jpqCw4IwNDQ0NSWloqKSkpcuLEiSdfgUFyIOqcfHP+nnyaWqZScttyGiSv9Sklcsko0IFEHtBKYATMJDqny6yMAPM0NBgmPpI6k9X5vPkZrdo+N1vUrUXO0k/4qevXr8uZM2eeBOoRcCdPx0r0tVuy/kKJytofLWiRu51PqURCRgEBEgRaCYoVyt+sbt42AmFnn7iExUHQSWCpq7lW5/XGZ5gtsuR075J8Lbk/pIJZ3U6GCWxsapLE5FQJDQu3BCsiKlpSM7MkpahWPcktvXaqWdXO9do9xrbPIu6BZNC5M5UPe7LDleIcd9GTzfbGwNnrnj/iFW74pvLrrfL7++eK5aOzBfLR2UJhf35SuTJfXAPlHgqt6nmF7YNys75dMm8XSXjUGQkICrYGKyJCUlJTpay23vGMRJ7fYRyQlPHxccUkW1papK+vT1gIdodtsFjt0Gky7DBCcz2Hgh3VYgJZbw59Xgp5+JaFaZWOZp2ZaNXS2DxZFXVRVkZdliWxeTL/XKkCDD9Grk8//g6fuSLxtmyOPi++QSGWQOHDgoKCJCw8XCqrqmR4fFLah8fVo4SMspicnJTu7m4pKChQBOXu3bty//59AUQ7wzZY/B4rnQw7sQ95QaOweCgjGuCsVEIJHQdOaoogmgowhIXAkbZpmjU5xmraOH2oPAljbtuhtQBNdteHYZyf3v/gXLEsi8mVDREpsvdklHx38rRsDzsr6yPTZHn0VVkUd0vmJZbK/MRSWZhwV5bF5MjaU2myJyRa/AICnYIVEBCgALtwKUPulpRJXXOr9A8OCQANDAxIbW2t5ObmSkJCgjpu//79EhYWpvwgf+c4d8M2WPqH8FuYQnNwvPl6g1xr6nd6ByBAIWxiJzp1D9xqVg9rRCPpQ+SOewCjguusOVI/Ggi/Avngu8R55jI7DBUNUd3AhkcHvX/uniyJvSEbwpPFJ/iUQ/D+AQFyNPCk7AiJldWRF2VJXL4si7shy89ck43hibIvOFJ8A4Lk+IkAx3d+wAgfEY2Q8FMSl5AkWdevS3l5uTQ2NkpxcbGkpqaKn5+fbN26VdatW6deW7ZskZMnT6rjIDDuNMxjsOjbo4ULQenVyhaW6OrRb2gULc488FF35mJKESjVZnKMVIZL7g87rY2h3Zp8cFM4zZz4GHoHtZbh0+gWpmeDp4Aa2wGWxuTK+ohkORQU+gMtAQjfgGA5FBQm+09Gic/JSDkYHKFARKPsAAWAAYGB4ufvL/v27ZejR4/K8ePHxcfHR3bu3CmbN2+WDRs2OMBav3697N69WwFWUlKigm5XgHkMFgErpQuaSxA6QCFwcngwOM2gtCbqLW3XmC/ddm0Emn2AozaE1tEUipZBo63MIp/BTimIkpIKKmpTtx/R5MLDuKhRkerhfmGaPelcopSz7myObAk9K34BQU41BFAAx98DgIxa5u/vL99//71s3LhRvv32W0F7AEVrk3m7adMmBWR2drYylw8ePG6X07LTW4/BQlD4Dx5HR884K5pSCabRanA8Pgf/RDbCuNLNgFHFRTMIvHmSNH0fgML3rUDjfFMsdVSgyty5wnf4jMF3WFxoNU9cO3zptuyJTBTfwGDbmmIEws7+sWPHZN++fS4BMgKGpgFqRkaGIh+ufJfHYCEEWCHJW0wf/mLZxWrV5KkkZPoHUtI1Mi4RpR0KKG2uzEDp9wCG9rEQ0NYrDX3SM+K8eZTmlpFH5AXNRhuNNzlgNnnAI8H69cpmicq4IUdDp3yQHeF7eszBgweVprjSJiNYO3bsUKayqKhI0XqvmkGwgLVhpujCBSiesonpsRoIj8Il/kgDYmeLaaUCS88gWonpRaPJPTrTMqvzGz9r6xuS7JJq8YtJEt+T1sGtp+Do4/FNmEC0CtNnBMTVPqwwKSlJGhoajFO13J+WZvFLrN7rzf2yJadR+S8ep2A1MEMEl9PtpaAbCbLgW9Cm8ndoCdo63YRxU2e3nLyQLf6nYpz6LQ2AJ1uAwgTu2rVL+au1a9e6BQzt8/X1ldu3b6t4y0p+xs+mDRarG/+AI+fOeh6dYzWoc5EN4P5jOxplPgaziZ8jncWNalSOyVHCSo3mzurcVp/1Do3KzZpmiUm7KL7HA+S4OSk7zfcI/cCBA7Jt2zblr9yBBVAwRHKNXV1dtjIZ0wYLQXAjAg9MhJHdctLXTbYeE0mvhhkIT98DGlrGA7hSa3h+7ZjqArYCxdlnNF12Do3K5excOU7qKMB97GSlYf4nTog/cdej7x85ckTRcMgCZs8OWN99950ygaSg7IwZgYV2QdUp+TtrOuHJMIF32+SrDNcNkXaB031/dNaS/bBb5TUKg3iNlE9kZKQEBjmn8VYg8RnaeOR4oBwjUH4EOMTCGEfZAQuTSUZjTsBCAPgO6k+YO8iEuR7EQ7h4WDBmzC4gdo6jSZOnukB0PBlUe8kWZGVlqWCUNJEzUPTnHINPwsytXr1aPvjgA/nnO+/K2//8l7z7f+/JqlVfq8D31KlTsnfvXltmEO1DC0NDQ1WWg3qZuzEjzdI/DkDQZ56PAVM0+hIy9Tyo2JyecgXIvMQymXeuVOadK1F5OqtjKWmcKGzzqA2OgLO/v18qKyuti4hO/NXhw4cFir1ixQp588035be//a28+OKL8tOf/lR+8YtfyJIlSyQwMFDu3Lkjp0+fVozQmKlwxQYPHTqkFg5pqdHRUZcpJ6+ABWgwNJgfhUOCUk2vMY/0yC9O5+5+5/0Qxr/RfLIgrkDej70jC+KLpoBT/0HM41tSicV4JAMP+rI7aHZBKJcvX5aoqChbGgUICPvdd9+V1157TV5++WV54YUX5Gc/+5kC61e/+pVigCRp+X0StufPn3cQDVdA8TcWARpMYZOyCSbRWazlNbDQJvwX5pB+Bq1h+BSey+esxdioNcofJZbI52eyZEN4kmwMS5LVkRfks5gcIVvOsYDKljiMzDu3g3ITH4vFOLhgTB4liPr6eiH3lp+fL5cuXVKrnwSqNnPOtjA8UkcLFy6UP/zhDw5tQqN4/fznP5c//vGPEh0dLW1tber0mDMaasio79mzxy191+km5hAXFycXL15U80T7Ozo6ZHj4ccnJa2BpQQEWd1mQTQCwqt4RdZsN8ZIRGKv9+Ykl8tHZO7I5PNFBqQ8ERcjG8GRZFH9b3fOrwdLfx8TSrAPr1IBh7hAaAqRmhCbFxMQo/2DHR2nwvv/+oKxdt17+/j//o8DRIOntK6+8ojSOJhpjTo+aVU5OjspMuNMs498xnQTUxGvx8fGqpNLU1KRF6/3/mY70DuaQR7CiYWTHIQNojRaws+2HCUXyefRV2RXyOGA9eiJYdgedlmVx+UKLlxks7kYkhiPOg8wgNFYjzS1cMOaOVR4cHKz8igbCznbL9h3yj7f/Jb979TVLsN544w1FKCoqKhwCZQdz2NzcrDTYCIadfQ0YTJFsSGZmpuO3va5Z/DIPuQIoblYDLHooyKrPSyoTAFkad0NWRl+Rz2Jy5eP4O4pELDhXIp/G5Svz5xMc4TBRficC5GBAqKw6nSEfJxTKvMRymZ9QLB+cyZdPwi7JorCLsjwmW/bl1kl0eadca+yV/PoOSc/KFU+0yAyer/9xWb1uvbzy+n/JSy+//AOw8FmLFy9WWtvZ2ekQKDskY9Hsc+fOPVESsQOW+RhSUXrMClj6xzGD5AUpNHIH40fJpfLv2FzZRE0pIFS2hsbLyqgM1QdBhXZF1BXZGxQpR00lDEoaW8Li5YvTmbIgvlA+PJ0jnwYmyYp9vrJy71H5/HCYvB9zUz5Nq5A1V2rkcE61BKRccQBuBsLO+0O+fvLFV6sU29NmT28BCqJBXIVPtOqjwGemp6crem43qWsGivdzBhY+H3ZIx1NCRaf4XCuXfdHJcjAoTPxOBMrhwBDxCY6UXaGxsifkjKreEmiqzICBRpMtOOAfKFuOBMiX+/xlxZ7DsmrHPlmzeZus+XarfLXTR5YEnJOPY27IJ/zHMCnFsi36wozAOnjMTz5faQ3WL3/5S3nnnXeUeYW9Gf0VC5X3fA5YVIbt0vinChYT19Xdup5hyShvklMJyRIQ/JiJUeybKvSZGicNYJHRJh7ZuXu3rN2wSdaZinmrt+yUz45FycLIrCmTGlcoayLSZwTWET9/+Wr1Gvnd734nL7300hNm8NVXX1UaQ2BtNWChxHNoBdo3Hc3iOwTNaWlpjlPMqhl0nOXRzsDgkFy4kiWhp057JEhdejD2LxhX4ddbd8lSvxj5MCpb3kssk/nxhbL6VLqDUdoxe1bHQKv//Oc/C7GUNoFs//SnPyny4KysQXBLTzxJWuM8Pdmn0gz1pyipx5yCxUUU3SuRpJRU284foEiSkqFGeOYLxhR+uc9XPg7PkAXxBfJeEtmPEvk0Nk/WRKTJ5rAE2R1yRg4Gn5pqJXPRoWQGjN6JlStXyl/+8hcHWL/5zW8UXYeaDw5ad9z29PSoWAmCY56vs/fbt29XMR0tbfTSE2+REWltbdVYeZ+6O37ZYgfzAKW9evWqU80iSXrU108OHD4q+w4dkX3fH5LvfA7I5i1bLc3J6q275PODwYod0kKmwwIY48LYW/JZ9HVZFXVZNkamy46IBPEJPa1AO24DNLqRML+wPrSJIPhvf/ubmkdNTY3FFU7R9qqqKhUoQ72dgaM/x9ShQeQIMXlkQgiq0UyIizGbMaeaheMliXrjxg0VMJpXMkD5+x+XXfsPCqbt3xu2yfLNO2Xtjj2ybuNU6UFfpN6u3rxdvjgQIO/H3nYANQVYmZBjpP9vQWKJvJ94Tz4+e0dWxFwVn/BY8Q0OdbpgjPNCO+hSIouOrwI4Vr6ZrmvkSGehFaSR7BALyiSYS9rWiM8AiEUN/TcCxe/PGVja6bJqYElGgeh9MgZkted/uFD+/sab8t//+F/54KsNsjk0XjYeDZL1u3+4Ur/ZuEm+2nVAFgenyIfReTIvoXjKbz36n1LJ9lNL4xm8x+80yZmCGrmYd0vOxCdYzkHPRW91rEbaiUQuZIfyCo2ZDB2EY64KCwtVbAW4doBiwZGtmPVKsV5JrrZcCCuFnm5SP0T6rDqrJComhyrrW2+9pVbwCy++KPiHxd9sluCcMvFPz5b9waeU3zKzK+j7cp8TsuR4vHwSkamC65XnS9X/TMezEHmiaGZDrwrQG3sGpa2jU2UG8A8aDA2Ou21ycrJKYZFvxKSjSSxATLsxH+iungVQ+ODw8HClpVaxmlm2s6pZqDWZZCgu0TwgYZsRklkoeuViaig/EMu89fbbEhgSKp2DI9LRNyDZefmC2dDVWG0K167fIN9s2iKrt+yQdbv2y4HgCEnLuaX+Kwv+jxDylaTAqLdRKR6fmFCrmfoTWXXzXKzes5iYIw0uvCibQHzwaRAR/A5sFRbHvNyBxYLjd7jfCzmZTZ4ZKN7PKlhoFLaYHJ27LDcXS10IkKDHv//979WFX7t2zTFvVjCZcJiTBsq8ZbVStTV+z/EDj8wWqxjTw+KxWjhmsDB9mDbmSNzEOTFzAMPWrOl2waJQSaV4TnowjEKw2icVgx1nBbszN1DzRYsWKbDQLFgXpYe6ujrHT8OyQkJCVK+DGST9HrAQApl2q0FmAWoN67KrWYQPaBBmWmuOPp+zrR3NYtFhOkk6Q7zcjVnVLCbARGBPZL3NK9b4HhOzfPly+fWvfy2vv/660jJYI5kAPahJITRnwTGrHAFwrlu3bumvPbElNkLbocl2fRZaBQ1nIVhpkRVg7sDiOwDP9UC4jKWQJyZseDOrYFGqgFgQ3F25ckXZZ8reaIcRKPZhRUz+r3/9q8ybN0/5JqqusEiICjUiTBuUGKEZBUQNCP+Bs4YAUF+yunjoMJSbqiz1LfMcnL3HrFKysMvwmJsdsDiO68HqsLhYmFyrszGrYBlPyoqGQQGa1X25+AXM19KlS1UBTscyCBjQMad0IxlBYp+VzqqnAkz6xyo+0fPAkWNWExMTlflxBo75cwgE2mxXqzwBiwWAH41MwSAAAAOISURBVMR3VVdXu+x0mjOw0BB9Uxn5LsAxCwXtAjCYFysfDcG30NOAycLBm8HC7KGpaCE1JFesijI5xALQ7RALfBUmkNty0PrZAIvfBDDORaGRa3A25gwsJqDNEHk1M1D6PZMGSEwDZg2h4s+c9Y/rDADmjd93NQhcAZ/wQZ/PvOW8+DwdYmACdZeteaG4eo8ZRGMgTpg6zSKtvgNgLFAW8TMDFtqlc4PEN2aGyIQRjk7VsJpZda58BZoIa8QEGptLrECDnZJ9YBGYz61BAyhY4tmzZxW1JxZytlCsBK8/Ayz6DPk9rtVZnlBrFs0yNMm4Co7nVLPIunPLJiTASljaDHoiHI7le2ir7jCyAorPOD/aRZcTYOg5oL2anPA7ZFowq2w5loCehWQOxjUwxi2aDkCYbkgDzJP4EGZLAMzfAA6QeLGPf0YuxKXPBMFAWJAMshkwQr2SjVsYnRXb08LQF8hWf8YWpsYFmxtXrEBj5WIyMYf4RQJjgnbiMgRGthuB4fvYAjCOH3rNecznNs6DfYDnGjkH39UDrWeh4IfRIoJ7rherwLwByt2YM83iwom7uBGa1aVBYnVjJnhPzMHqdSYQzCF/Nzt7tIuLhzy4G4CAb0MLAQfhISzID2wRU20cHI/QMVEIl/Nj4py9iN8w9eZmTa6f3wY0zDGslLiRhcDv83d3Y87A4qJxnsRcUGdWIBoGeKxyzfoQOtplXLGAA5AcjxNmlaNJEBFoNYxNU3d3F6z/DjDEboDGqmZ+zgZ/Q+PQRGe+BxBhq5hNd6yUxcL5OS/WxtW5jXOaM7A4KZMkDwZg+AxiLuw5q5oVx4oEPJKkGiy0DDbG8RzL6uQCIRQEyXyOD9TFOuPFeXMfq4B5Y4HouRm3mEgWIFpqV/iezm9OweIiMA+Ag01HAKxCQMQMEMHfu3dP0WYtCFYs2oO5Amh+g+MxHXyf39HtYLMlJITKPEmdRUREWILFHLEYlExma8wpWO4uAiARPF1BZAzwUZhE/Bor1uiw3f2Wt//O3FgsaDE+0hxOYL5v3ryp5u/tc+vfe6bA0pPCf+GHMC04dVIx7mi5/u5sb9Fw/CdzwzzrF1kR2J67WG8m83smwcLx05BCjAJbooD5NLXKKGDmxpx0/IQf5YX5gzRgomdrPJNgzdbFPu+/+yNYzxGCP4L1I1jPkQSeo6n+qFk/gvUcSeA5mur/Ay6lCBPd5ERjAAAAAElFTkSuQmCC;" vertex="1" parent="1">
          <mxGeometry x="400.03999999999996" y="40" width="51.94" height="50" as="geometry" />
        </mxCell>
        <mxCell id="ePm8Xnh-taZD7xGUpZaN-13" style="edgeStyle=orthogonalEdgeStyle;rounded=0;orthogonalLoop=1;jettySize=auto;html=1;entryX=0.524;entryY=0.049;entryDx=0;entryDy=0;entryPerimeter=0;" edge="1" parent="1">
          <mxGeometry relative="1" as="geometry">
            <mxPoint x="426" y="120" as="sourcePoint" />
            <mxPoint x="425.9782799999999" y="218.00752999999997" as="targetPoint" />
          </mxGeometry>
        </mxCell>
        <mxCell id="ePm8Xnh-taZD7xGUpZaN-14" value="1.1&lt;br&gt;Event code 12xx&lt;br&gt;ProjectId, COneId,&lt;br&gt;EngagementCode, IsAmendment" style="edgeLabel;html=1;align=center;verticalAlign=middle;resizable=0;points=[];" vertex="1" connectable="0" parent="ePm8Xnh-taZD7xGUpZaN-13">
          <mxGeometry x="-0.2329" y="-1" relative="1" as="geometry">
            <mxPoint as="offset" />
          </mxGeometry>
        </mxCell>
        <mxCell id="ePm8Xnh-taZD7xGUpZaN-3" value="&lt;span style=&quot;font-weight: normal&quot;&gt;Virtuoso Webjob&lt;/span&gt;&lt;br&gt;AutoProjectCreator" style="text;whiteSpace=wrap;html=1;fontStyle=1;align=center;" vertex="1" parent="1">
          <mxGeometry x="371.01" y="81" width="110" height="30" as="geometry" />
        </mxCell>
        <mxCell id="ePm8Xnh-taZD7xGUpZaN-4" style="edgeStyle=orthogonalEdgeStyle;rounded=0;orthogonalLoop=1;jettySize=auto;html=1;" edge="1" parent="1" source="ePm8Xnh-taZD7xGUpZaN-6">
          <mxGeometry relative="1" as="geometry">
            <mxPoint x="425.99" y="290" as="targetPoint" />
          </mxGeometry>
        </mxCell>
        <mxCell id="ePm8Xnh-taZD7xGUpZaN-5" value="1.3" style="edgeLabel;html=1;align=center;verticalAlign=middle;resizable=0;points=[];fontStyle=1" vertex="1" connectable="0" parent="ePm8Xnh-taZD7xGUpZaN-4">
          <mxGeometry x="-0.3135" relative="1" as="geometry">
            <mxPoint as="offset" />
          </mxGeometry>
        </mxCell>
        <mxCell id="ePm8Xnh-taZD7xGUpZaN-6" value="" style="aspect=fixed;html=1;points=[];align=center;image;fontSize=12;image=img/lib/azure2/compute/Function_Apps.svg;" vertex="1" parent="1">
          <mxGeometry x="406.01" y="340" width="39.97" height="35.27" as="geometry" />
        </mxCell>
        <mxCell id="ePm8Xnh-taZD7xGUpZaN-7" style="edgeStyle=orthogonalEdgeStyle;rounded=0;orthogonalLoop=1;jettySize=auto;html=1;entryX=0.5;entryY=0;entryDx=0;entryDy=0;" edge="1" parent="1" source="ePm8Xnh-taZD7xGUpZaN-9" target="ePm8Xnh-taZD7xGUpZaN-10">
          <mxGeometry relative="1" as="geometry" />
        </mxCell>
        <mxCell id="ePm8Xnh-taZD7xGUpZaN-8" value="1.4" style="edgeLabel;html=1;align=center;verticalAlign=middle;resizable=0;points=[];fontStyle=1" vertex="1" connectable="0" parent="ePm8Xnh-taZD7xGUpZaN-7">
          <mxGeometry x="-0.2376" relative="1" as="geometry">
            <mxPoint as="offset" />
          </mxGeometry>
        </mxCell>
        <mxCell id="ePm8Xnh-taZD7xGUpZaN-9" value="ACR Func&lt;br&gt;&lt;b&gt;AutoOptCloud&lt;/b&gt;" style="text;html=1;align=center;verticalAlign=middle;resizable=0;points=[];autosize=1;strokeColor=none;" vertex="1" parent="1">
          <mxGeometry x="375.99" y="375.27000000000004" width="100" height="30" as="geometry" />
        </mxCell>
        <mxCell id="ePm8Xnh-taZD7xGUpZaN-10" value="" style="shape=image;verticalLabelPosition=bottom;labelBackgroundColor=#ffffff;verticalAlign=top;aspect=fixed;imageAspect=0;image=data:image/png,iVBORw0KGgoAAAANSUhEUgAAADQAAAAxCAYAAACVtYpYAAANLklEQVRoBd2ad3TUVRbH99hWBSxgQV1dC2tDwbIqiLrqioqioYgehahrWdYG6kbXhPRAIA1SCDE9VEkAA1IiCEhZEAu6rGSSSZ1MZjKZnkICQeC75/t+86ZPMgHcP8w57/xmJjPze5/3vfe+e++b3+E39ve73xgPTjtQ19Hj2KftRsH3NkRsNuK11XqML2nCk0UahJbq8OFGA3L2WXHAcPhXWcvTAmTtOo7svZ14eaURZ4QfxFkRlWKcM0uFsyMqwes5ESpx5fOzI1Q4M7wSg+OqMa5Ig5RdFtgPHzstgKcE1Gg7irfLzUjY3CPGrI2HcVFMNc6NVOH8yCoxBkRVwX2cH1WF8yKV8XuCzlIJeAL+o7wF1aYjpwR20kApu8wYEF2FQdFViNx42An1wlILLoiuFuOiGLUAvNhx5fMLo6txYYwag6KqMSi62glOuLNnqXBGeCVClmjR2vnLSYH1G6jW0oNRixqE2XASVGL0Qp0TiGqNnN+ES+JqxLg0rgbe45LYGgyJrYECqhbwA6OqhXL8TprsZQnV2FDV0W+ofgEt2mfDWeGKT5wXqcJAhxKc2PRV7U6omeWd+OOcelyZUIcrE2px1WzX9Yr4WlyRUIvL45VxSawaI+drMSZbj3EFRoSusOGNsjbnd4Wtt+LwLyeCBgsaKGG7SaycVIXmQhMaEqsWCgxPbXJOgiqFLrcJKIJxXJuoXPn46tl1eDBbj2nLbYjc5DJX6Yve1zdX2XDseHBQQQGFbTQJZc6NrMKAyCrhA1SFpnR5fI1QgipMLHYFCE7qyTwjhs1twJ/mNYrrozkGvLLCjqggILyh3l9nDUqlPoGSv+7E+CIjzp2lEtHqwphqDHaoMjReMadr5tTjusR6XD+3Ae+u6XQqxYnfn6XH0wVGfLK+2/m692T7eh62rgtvlLYh6Wtbn1C9Am2rPSImQZuWygyOUeMyhx9c7TCnG6jC3AbcnKTByNQmRG9SPtfXRL3//87qDkwoNuORHANuTdWIwMGIybBPUz8zohJbaw/1ChUQqLPnBKIdpsH9hV9MZS6LqxFOTRj6BU3qxnmNuDVZg9tSmjAitQkhhZ6m5z1x+Zzgr69sw9P5Rtye2gQuDL+TPsaAwnvxnrw39y/uWcNSanCklyARECh2sytqcQJDE2oVZeJrQRPjjekbNyU1YnhKE25PacKdaVoxub4UitjQjUlFZtw9vxl3pGoxIlUrFoQKc4GuS2zAH2bX4YqEOuGnhBrk2JAZ0qO/MgVUyS+QrfsY7szQetj8Q4taQJ/h6gll5jXi5qRGoQrN7K40Lf62wu7xGamEvMZUHEFIgRljMvQYna7HfQt0uGdBs/jsyFQthidrhNkSivcgFBeSexojqjQ9ZiKBMgq/QLO3m3FpfI3H5F5baRc3YNgd5lCGJkaYURk6vP+5KxhIAH/Xt1d14OEsAx7KbMEDmS0Yla7DvQt0PlCK+TXgKseepZieGtz/mAtOXdnsVyUfoJ5jJzB0TrWIau4pDfcLmto9mRpMXaZHSJHeCfPRui4PeHeQN1e2473VnrD/XNuFJ3Ja8XBWCx7MbMFoJ1Sz+E76I02ZUZP35EbMLYIqDXQEiPOjVGjzk9D6ABV+bxMrwJV4YanVOdFdNZ0w2zvR0dHhHO0dnfiuoRNp2303Ry7GiyU2jP/UhGdyzZjpFs4J/MkX3XgyxyigHspyQdEP6VO3JDUKH712jmJ6l8cp6RI3dCa3zFiy9vruTT5A44qbRDShvY7J1iFvz2EYbZ4g7lDycdl+l0rh67sxMd+CCXlmTMq3OMf7nx9yLpCAWt+NcTlGPLLQIJSi+dGnGChozlSJpidVcvclRrwR6XU+ZucDdFFsFZgRUNq7Mhpha+sbRkKt/KELM9Z0YnIBIcyYUmjF8wUWvFBodY4PvKAYKCYUmPGXLMWn7l3QLKIfoyZNTwYI5oTc/5ihMIeU+1JLh2dW7gFUb+0R+RrNjbH/5+Z2p3nJSfd2pQmGLrFgcr4C8WKRDVOLbZjGUWIXj/nazDWeSlGtl5bYRKBg9Pvz/GY8U6DD9DI9QpfpMDxFCeNMaEUIl2bHjbbOc6P1APrsQJsA4ib2VKGmXzASdG9th1DjpSIbXi6xi/HK4jbn49BiO14qtmH6Z+2IrfDMKBgBX1xswDaVzePe9vYOzN/eKoIDk2HWUzLaZe7x9CMPoPhtJuE/rHHKfrR4fKmccF9XBg6qIGH8XUNL7OI9oYttiHIrDtN3HEazKbBVLP3WJPYkFolcdJbzb69t8fAjD6DwL43iTQOiqrFfYz8pIAJPK/ZVhmDuStEU6VvPFVjwsSPs71YHhpEL+epnWhG+uegMDM8v1wYG+mCDwRnh/tN0KkC9K0Q4QhOIUfCZXBPC1rq2Azl5f9fVP5pEWc8oTCDvDdZDobfWtojuDMvhioPmk1LIau8ATcrd1NyVkUoxUChAZrFPvVNqCup++xttShrkUOiVMl1ghV5dpXMqNOPz5qBu4L2KPze1iWjmDuTvMU3u+UKr2K+4+b62LDigHWqrM69jCvTGGn1goLBNrQ4fqhLdGZ2p/2Y3t8KiOLyXz0hleFWCghVTCqwIyTPj6U9NeHxRK9T6tj4XcfYWm+g/SB96q7yXoLD8pzYBxDczNM5Y3dTnDdwV+katZAVceYZmb9OTMAzpfA/959lck8gWxma3IvHL3s28StfuLN9ZxQ5LbkDSTnNghVTGI6KjyVyJORNbTfm7DUFBfVvbhtdXtCMk1yQyBWYIYmMtUsDoM1OLGa6VrIGZhKKOEU/kGPHoQgOY02Xv9A+l1tvx4doOj9SJG/JmdXdgIDZWBsUo5S4bgUwz2JIq2duOmmb/NzKY7Sj7wVUMMvXhRLn6DMlUQqY+fDxFpEUWp6kxQX0s2yCSVNZJ96XrMHWJHoV7zdiqsmL9AQtiNhlww7x6UcE+VWB0NjaZAP/i1Q3yiHJEnbxMqwSGyCpck1jvsSILd3SgYKcOpft0KNndjAXbXSBcLTnYEJmQbxZjojNBVSAJ+2wu/cYosm3CMDl9IFOP0RlK2nNHmlLs3ZSkwfWJ9UpyGq+UENxUh8SpMTbPgBnl7R7q8IkPELuVLHNpdmxYyEnyyi4Oy+5bkjSid3BfejP+Xuofikln6BI7xueyfFDGc0UmfFRuwUflZkwqMOGx7FZHpq3H/Rl6MDFl5cvE9JZkjVI+JNaLRqXM45hjMu05K0KFRd94pj1+gajg0Dlqkc2+51WFhq6w4/rEBnDlmAmzbOYEppf5h+IihK3tQki+Gcv2WdHuVksxmKz4ziqUkTDsMYxIaRI9CjZeWODJhglLB7qAUoZXYUh8FbqPHu9bIb7jXxWtPiU4J8eeNWt91ihsaLAHoEA1Y3KxxUNNd2W3VgZOaTb916YoM1+pVtlwkXUQy302MN3VYQRmDhe1xegD41chvmg+dEwUd+6T+viLLtGFYeOCXRnWKTcnu6BYaT6W0wrvcjx3d9/11MfrWoUJi6KOXdZ5jWClylYZGzNUh77DDIZ10HlRKhgDnE74+JDETtnhGSInlZhFXc/6nmbghEpSenLsx9GZaTbTltkQ7SgNvjwYWB25h5X/ZMHwZEUZWdARRvYSaGrO0juiUliQnKf3NSDQoZ4TCN/gat/enaHF4NgaETrZBJRQND/6FAOFaDSmKGBjsvR4s7QdO6r7zjb21trx7poOTC6xYOynBtybqRONR1ao7NReEK0WxzZMRkdla8BGTqC/gED8wLZaV/ODoVKETAcUV4/mR5+i88qmI6MTfYtwjFaL9/nfv6Q6vFYc7L2fJ02f+86P+p5ALOL1XoH4jpQd7WL1aLu0YaUlrBxisbPJvpnspFItmsyNSUpHlXAvL9f1mWks2uVp3hLA+5q1x3ff8abrE4gfiPvK5jwbYtgk1MWxauGsjEBSLQnGkwjCScC8fxsDQpXttzrzM28A9+cxW+zec/f7PCggfnLmeoPYzKgUodhrZuOPTYtL43ga5zgnYtBwHGox7HLQLOMqDGhsdWXTzaY2zNliAE/0uCiMZDzJuy1Ng+FpGjyR34qxea34a64BKTvb/E7e34tBA/HD3JkHRiuVIjMJqZZykqecqdKRpWpUTjmWVE4T2Ip6MFuDB7IbxXt4ukAQLgq/g8rLs1YGAGYshd8Hp4yE6xcQP8Qm+e3pdeJm7N8xDZG+xUkxxDJLl0eVnLDr0LgWPFOVEARhoCEIF4eND1oACzcem+zRdMl5Bn3tN5D8ZvYf+NsC3lxsdg7FCMc9g/UUT/sI6T74OgGkGgThoiggleI7Y7cGPi6R9w90PWkgfiF3a978ykS1UIxmIuE4SbHqArRanACym8TUhUrwiJMKn+P4ZcmdGXVI220RWUqgyQbz+ikBud+g6Ac7pizX4ioHnPITGMfPYhy/GOHPY6gofYNjZEYdwja2goXl6fo7bUDuE9LYj6L0QBtolo8XavBwXiMmLtUKNfn6r/XDJc7hVwFyh/t/P/4fdI/7J6eV8+sAAAAASUVORK5CYII=;" vertex="1" parent="1">
          <mxGeometry x="410.01" y="470.00000000000006" width="31.97" height="30.13" as="geometry" />
        </mxCell>
        <mxCell id="ePm8Xnh-taZD7xGUpZaN-24" value="" style="edgeStyle=orthogonalEdgeStyle;rounded=0;orthogonalLoop=1;jettySize=auto;html=1;" edge="1" parent="1" source="ePm8Xnh-taZD7xGUpZaN-11">
          <mxGeometry relative="1" as="geometry">
            <mxPoint x="425.99" y="620" as="targetPoint" />
          </mxGeometry>
        </mxCell>
        <mxCell id="ePm8Xnh-taZD7xGUpZaN-25" value="&lt;span style=&quot;font-size: 12px ; background-color: rgb(248 , 249 , 250)&quot;&gt;1.5&lt;br&gt;get CompassOneContractDetails&lt;/span&gt;" style="edgeLabel;html=1;align=center;verticalAlign=middle;resizable=0;points=[];" vertex="1" connectable="0" parent="ePm8Xnh-taZD7xGUpZaN-24">
          <mxGeometry x="-0.2356" y="-1" relative="1" as="geometry">
            <mxPoint x="1" y="13" as="offset" />
          </mxGeometry>
        </mxCell>
        <mxCell id="ePm8Xnh-taZD7xGUpZaN-34" style="edgeStyle=orthogonalEdgeStyle;rounded=0;orthogonalLoop=1;jettySize=auto;html=1;" edge="1" parent="1" source="ePm8Xnh-taZD7xGUpZaN-11" target="ePm8Xnh-taZD7xGUpZaN-33">
          <mxGeometry relative="1" as="geometry">
            <Array as="points">
              <mxPoint x="426" y="560" />
              <mxPoint x="185" y="560" />
            </Array>
          </mxGeometry>
        </mxCell>
        <mxCell id="ePm8Xnh-taZD7xGUpZaN-35" value="1.5" style="edgeLabel;html=1;align=center;verticalAlign=middle;resizable=0;points=[];" vertex="1" connectable="0" parent="ePm8Xnh-taZD7xGUpZaN-34">
          <mxGeometry x="-0.3764" y="-3" relative="1" as="geometry">
            <mxPoint y="-3" as="offset" />
          </mxGeometry>
        </mxCell>
        <mxCell id="ePm8Xnh-taZD7xGUpZaN-11" value="ACR API&lt;br&gt;ProfileController&lt;br&gt;&lt;b&gt;AutoOptCloud&lt;/b&gt;&lt;b&gt;Async&lt;/b&gt;()" style="text;html=1;align=center;verticalAlign=middle;resizable=0;points=[];autosize=1;strokeColor=none;" vertex="1" parent="1">
          <mxGeometry x="355.99" y="500.13000000000005" width="140" height="50" as="geometry" />
        </mxCell>
        <mxCell id="ePm8Xnh-taZD7xGUpZaN-12" value="" style="aspect=fixed;html=1;points=[];align=center;image;fontSize=12;image=img/lib/mscae/Service_Bus.svg;" vertex="1" parent="1">
          <mxGeometry x="404.51" y="218" width="40.97" height="40.97" as="geometry" />
        </mxCell>
        <mxCell id="ePm8Xnh-taZD7xGUpZaN-15" value="ACRInternalTopic&lt;b&gt;&lt;br&gt;AutoOptCloudSubscriber&lt;/b&gt;" style="text;html=1;align=center;verticalAlign=middle;resizable=0;points=[];autosize=1;strokeColor=none;" vertex="1" parent="1">
          <mxGeometry x="345.99" y="258.97" width="160" height="30" as="geometry" />
        </mxCell>
        <mxCell id="ePm8Xnh-taZD7xGUpZaN-16" value="" style="shape=image;verticalLabelPosition=bottom;labelBackgroundColor=#ffffff;verticalAlign=top;aspect=fixed;imageAspect=0;image=data:image/png,iVBORw0KGgoAAAANSUhEUgAAADQAAAAxCAYAAACVtYpYAAANLklEQVRoBd2ad3TUVRbH99hWBSxgQV1dC2tDwbIqiLrqioqioYgehahrWdYG6kbXhPRAIA1SCDE9VEkAA1IiCEhZEAu6rGSSSZ1MZjKZnkICQeC75/t+86ZPMgHcP8w57/xmJjPze5/3vfe+e++b3+E39ve73xgPTjtQ19Hj2KftRsH3NkRsNuK11XqML2nCk0UahJbq8OFGA3L2WXHAcPhXWcvTAmTtOo7svZ14eaURZ4QfxFkRlWKcM0uFsyMqwes5ESpx5fOzI1Q4M7wSg+OqMa5Ig5RdFtgPHzstgKcE1Gg7irfLzUjY3CPGrI2HcVFMNc6NVOH8yCoxBkRVwX2cH1WF8yKV8XuCzlIJeAL+o7wF1aYjpwR20kApu8wYEF2FQdFViNx42An1wlILLoiuFuOiGLUAvNhx5fMLo6txYYwag6KqMSi62glOuLNnqXBGeCVClmjR2vnLSYH1G6jW0oNRixqE2XASVGL0Qp0TiGqNnN+ES+JqxLg0rgbe45LYGgyJrYECqhbwA6OqhXL8TprsZQnV2FDV0W+ofgEt2mfDWeGKT5wXqcJAhxKc2PRV7U6omeWd+OOcelyZUIcrE2px1WzX9Yr4WlyRUIvL45VxSawaI+drMSZbj3EFRoSusOGNsjbnd4Wtt+LwLyeCBgsaKGG7SaycVIXmQhMaEqsWCgxPbXJOgiqFLrcJKIJxXJuoXPn46tl1eDBbj2nLbYjc5DJX6Yve1zdX2XDseHBQQQGFbTQJZc6NrMKAyCrhA1SFpnR5fI1QgipMLHYFCE7qyTwjhs1twJ/mNYrrozkGvLLCjqggILyh3l9nDUqlPoGSv+7E+CIjzp2lEtHqwphqDHaoMjReMadr5tTjusR6XD+3Ae+u6XQqxYnfn6XH0wVGfLK+2/m692T7eh62rgtvlLYh6Wtbn1C9Am2rPSImQZuWygyOUeMyhx9c7TCnG6jC3AbcnKTByNQmRG9SPtfXRL3//87qDkwoNuORHANuTdWIwMGIybBPUz8zohJbaw/1ChUQqLPnBKIdpsH9hV9MZS6LqxFOTRj6BU3qxnmNuDVZg9tSmjAitQkhhZ6m5z1x+Zzgr69sw9P5Rtye2gQuDL+TPsaAwnvxnrw39y/uWcNSanCklyARECh2sytqcQJDE2oVZeJrQRPjjekbNyU1YnhKE25PacKdaVoxub4UitjQjUlFZtw9vxl3pGoxIlUrFoQKc4GuS2zAH2bX4YqEOuGnhBrk2JAZ0qO/MgVUyS+QrfsY7szQetj8Q4taQJ/h6gll5jXi5qRGoQrN7K40Lf62wu7xGamEvMZUHEFIgRljMvQYna7HfQt0uGdBs/jsyFQthidrhNkSivcgFBeSexojqjQ9ZiKBMgq/QLO3m3FpfI3H5F5baRc3YNgd5lCGJkaYURk6vP+5KxhIAH/Xt1d14OEsAx7KbMEDmS0Yla7DvQt0PlCK+TXgKseepZieGtz/mAtOXdnsVyUfoJ5jJzB0TrWIau4pDfcLmto9mRpMXaZHSJHeCfPRui4PeHeQN1e2473VnrD/XNuFJ3Ja8XBWCx7MbMFoJ1Sz+E76I02ZUZP35EbMLYIqDXQEiPOjVGjzk9D6ABV+bxMrwJV4YanVOdFdNZ0w2zvR0dHhHO0dnfiuoRNp2303Ry7GiyU2jP/UhGdyzZjpFs4J/MkX3XgyxyigHspyQdEP6VO3JDUKH712jmJ6l8cp6RI3dCa3zFiy9vruTT5A44qbRDShvY7J1iFvz2EYbZ4g7lDycdl+l0rh67sxMd+CCXlmTMq3OMf7nx9yLpCAWt+NcTlGPLLQIJSi+dGnGChozlSJpidVcvclRrwR6XU+ZucDdFFsFZgRUNq7Mhpha+sbRkKt/KELM9Z0YnIBIcyYUmjF8wUWvFBodY4PvKAYKCYUmPGXLMWn7l3QLKIfoyZNTwYI5oTc/5ihMIeU+1JLh2dW7gFUb+0R+RrNjbH/5+Z2p3nJSfd2pQmGLrFgcr4C8WKRDVOLbZjGUWIXj/nazDWeSlGtl5bYRKBg9Pvz/GY8U6DD9DI9QpfpMDxFCeNMaEUIl2bHjbbOc6P1APrsQJsA4ib2VKGmXzASdG9th1DjpSIbXi6xi/HK4jbn49BiO14qtmH6Z+2IrfDMKBgBX1xswDaVzePe9vYOzN/eKoIDk2HWUzLaZe7x9CMPoPhtJuE/rHHKfrR4fKmccF9XBg6qIGH8XUNL7OI9oYttiHIrDtN3HEazKbBVLP3WJPYkFolcdJbzb69t8fAjD6DwL43iTQOiqrFfYz8pIAJPK/ZVhmDuStEU6VvPFVjwsSPs71YHhpEL+epnWhG+uegMDM8v1wYG+mCDwRnh/tN0KkC9K0Q4QhOIUfCZXBPC1rq2Azl5f9fVP5pEWc8oTCDvDdZDobfWtojuDMvhioPmk1LIau8ATcrd1NyVkUoxUChAZrFPvVNqCup++xttShrkUOiVMl1ghV5dpXMqNOPz5qBu4L2KPze1iWjmDuTvMU3u+UKr2K+4+b62LDigHWqrM69jCvTGGn1goLBNrQ4fqhLdGZ2p/2Y3t8KiOLyXz0hleFWCghVTCqwIyTPj6U9NeHxRK9T6tj4XcfYWm+g/SB96q7yXoLD8pzYBxDczNM5Y3dTnDdwV+katZAVceYZmb9OTMAzpfA/959lck8gWxma3IvHL3s28StfuLN9ZxQ5LbkDSTnNghVTGI6KjyVyJORNbTfm7DUFBfVvbhtdXtCMk1yQyBWYIYmMtUsDoM1OLGa6VrIGZhKKOEU/kGPHoQgOY02Xv9A+l1tvx4doOj9SJG/JmdXdgIDZWBsUo5S4bgUwz2JIq2duOmmb/NzKY7Sj7wVUMMvXhRLn6DMlUQqY+fDxFpEUWp6kxQX0s2yCSVNZJ96XrMHWJHoV7zdiqsmL9AQtiNhlww7x6UcE+VWB0NjaZAP/i1Q3yiHJEnbxMqwSGyCpck1jvsSILd3SgYKcOpft0KNndjAXbXSBcLTnYEJmQbxZjojNBVSAJ+2wu/cYosm3CMDl9IFOP0RlK2nNHmlLs3ZSkwfWJ9UpyGq+UENxUh8SpMTbPgBnl7R7q8IkPELuVLHNpdmxYyEnyyi4Oy+5bkjSid3BfejP+Xuofikln6BI7xueyfFDGc0UmfFRuwUflZkwqMOGx7FZHpq3H/Rl6MDFl5cvE9JZkjVI+JNaLRqXM45hjMu05K0KFRd94pj1+gajg0Dlqkc2+51WFhq6w4/rEBnDlmAmzbOYEppf5h+IihK3tQki+Gcv2WdHuVksxmKz4ziqUkTDsMYxIaRI9CjZeWODJhglLB7qAUoZXYUh8FbqPHu9bIb7jXxWtPiU4J8eeNWt91ihsaLAHoEA1Y3KxxUNNd2W3VgZOaTb916YoM1+pVtlwkXUQy302MN3VYQRmDhe1xegD41chvmg+dEwUd+6T+viLLtGFYeOCXRnWKTcnu6BYaT6W0wrvcjx3d9/11MfrWoUJi6KOXdZ5jWClylYZGzNUh77DDIZ10HlRKhgDnE74+JDETtnhGSInlZhFXc/6nmbghEpSenLsx9GZaTbTltkQ7SgNvjwYWB25h5X/ZMHwZEUZWdARRvYSaGrO0juiUliQnKf3NSDQoZ4TCN/gat/enaHF4NgaETrZBJRQND/6FAOFaDSmKGBjsvR4s7QdO6r7zjb21trx7poOTC6xYOynBtybqRONR1ao7NReEK0WxzZMRkdla8BGTqC/gED8wLZaV/ODoVKETAcUV4/mR5+i88qmI6MTfYtwjFaL9/nfv6Q6vFYc7L2fJ02f+86P+p5ALOL1XoH4jpQd7WL1aLu0YaUlrBxisbPJvpnspFItmsyNSUpHlXAvL9f1mWks2uVp3hLA+5q1x3ff8abrE4gfiPvK5jwbYtgk1MWxauGsjEBSLQnGkwjCScC8fxsDQpXttzrzM28A9+cxW+zec/f7PCggfnLmeoPYzKgUodhrZuOPTYtL43ga5zgnYtBwHGox7HLQLOMqDGhsdWXTzaY2zNliAE/0uCiMZDzJuy1Ng+FpGjyR34qxea34a64BKTvb/E7e34tBA/HD3JkHRiuVIjMJqZZykqecqdKRpWpUTjmWVE4T2Ip6MFuDB7IbxXt4ukAQLgq/g8rLs1YGAGYshd8Hp4yE6xcQP8Qm+e3pdeJm7N8xDZG+xUkxxDJLl0eVnLDr0LgWPFOVEARhoCEIF4eND1oACzcem+zRdMl5Bn3tN5D8ZvYf+NsC3lxsdg7FCMc9g/UUT/sI6T74OgGkGgThoiggleI7Y7cGPi6R9w90PWkgfiF3a978ykS1UIxmIuE4SbHqArRanACym8TUhUrwiJMKn+P4ZcmdGXVI220RWUqgyQbz+ikBud+g6Ac7pizX4ioHnPITGMfPYhy/GOHPY6gofYNjZEYdwja2goXl6fo7bUDuE9LYj6L0QBtolo8XavBwXiMmLtUKNfn6r/XDJc7hVwFyh/t/P/4fdI/7J6eV8+sAAAAASUVORK5CYII=;" vertex="1" parent="1">
          <mxGeometry x="410.02" y="620.13" width="31.97" height="30.13" as="geometry" />
        </mxCell>
        <mxCell id="ePm8Xnh-taZD7xGUpZaN-27" value="" style="edgeStyle=orthogonalEdgeStyle;rounded=0;orthogonalLoop=1;jettySize=auto;html=1;" edge="1" parent="1" source="ePm8Xnh-taZD7xGUpZaN-17" target="ePm8Xnh-taZD7xGUpZaN-26">
          <mxGeometry relative="1" as="geometry" />
        </mxCell>
        <mxCell id="ePm8Xnh-taZD7xGUpZaN-17" value="Virutoso API&lt;br&gt;CompassOneController&lt;br&gt;&lt;b&gt;GetCompassOneContractDetails&lt;/b&gt;()" style="text;html=1;align=center;verticalAlign=middle;resizable=0;points=[];autosize=1;strokeColor=none;" vertex="1" parent="1">
          <mxGeometry x="320" y="650.26" width="210" height="50" as="geometry" />
        </mxCell>
        <mxCell id="ePm8Xnh-taZD7xGUpZaN-47" value="" style="edgeStyle=orthogonalEdgeStyle;rounded=0;orthogonalLoop=1;jettySize=auto;html=1;" edge="1" parent="1" source="ePm8Xnh-taZD7xGUpZaN-26" target="ePm8Xnh-taZD7xGUpZaN-44">
          <mxGeometry relative="1" as="geometry" />
        </mxCell>
        <mxCell id="ePm8Xnh-taZD7xGUpZaN-49" value="YES" style="edgeLabel;html=1;align=center;verticalAlign=middle;resizable=0;points=[];" vertex="1" connectable="0" parent="ePm8Xnh-taZD7xGUpZaN-47">
          <mxGeometry x="-0.7671" y="-1" relative="1" as="geometry">
            <mxPoint x="1" y="4" as="offset" />
          </mxGeometry>
        </mxCell>
        <mxCell id="ePm8Xnh-taZD7xGUpZaN-60" value="" style="edgeStyle=orthogonalEdgeStyle;rounded=0;orthogonalLoop=1;jettySize=auto;html=1;" edge="1" parent="1" source="ePm8Xnh-taZD7xGUpZaN-26" target="ePm8Xnh-taZD7xGUpZaN-59">
          <mxGeometry relative="1" as="geometry" />
        </mxCell>
        <mxCell id="ePm8Xnh-taZD7xGUpZaN-26" value="Exception&lt;br&gt;(ConsumptionReasonId)&lt;br&gt;available?" style="rhombus;whiteSpace=wrap;html=1;" vertex="1" parent="1">
          <mxGeometry x="325" y="740" width="200" height="60" as="geometry" />
        </mxCell>
        <mxCell id="ePm8Xnh-taZD7xGUpZaN-78" style="edgeStyle=orthogonalEdgeStyle;rounded=0;orthogonalLoop=1;jettySize=auto;html=1;exitX=0.5;exitY=1;exitDx=0;exitDy=0;entryX=0.5;entryY=0;entryDx=0;entryDy=0;" edge="1" parent="1" source="ePm8Xnh-taZD7xGUpZaN-29" target="ePm8Xnh-taZD7xGUpZaN-76">
          <mxGeometry relative="1" as="geometry" />
        </mxCell>
        <mxCell id="ePm8Xnh-taZD7xGUpZaN-29" value="&lt;b&gt;Opt-in&lt;/b&gt; all clouds" style="shape=process;whiteSpace=wrap;html=1;backgroundOutline=1;size=0.09090909090909091;" vertex="1" parent="1">
          <mxGeometry x="370" y="942" width="110" height="48" as="geometry" />
        </mxCell>
        <mxCell id="ePm8Xnh-taZD7xGUpZaN-40" style="edgeStyle=orthogonalEdgeStyle;rounded=0;orthogonalLoop=1;jettySize=auto;html=1;entryX=0;entryY=0.5;entryDx=0;entryDy=0;" edge="1" parent="1" source="ePm8Xnh-taZD7xGUpZaN-33" target="ePm8Xnh-taZD7xGUpZaN-76">
          <mxGeometry relative="1" as="geometry">
            <Array as="points">
              <mxPoint x="70" y="1075" />
            </Array>
          </mxGeometry>
        </mxCell>
        <mxCell id="ePm8Xnh-taZD7xGUpZaN-33" value="&lt;span&gt;Get the recommendations&lt;/span&gt;&lt;br&gt;&lt;b&gt;GetRecommendationsForOptInAsync&lt;/b&gt;" style="shape=parallelogram;perimeter=parallelogramPerimeter;whiteSpace=wrap;html=1;fixedSize=1;" vertex="1" parent="1">
          <mxGeometry x="60" y="630" width="250" height="60" as="geometry" />
        </mxCell>
        <mxCell id="ePm8Xnh-taZD7xGUpZaN-36" value="" style="aspect=fixed;html=1;points=[];align=center;image;fontSize=12;image=img/lib/azure2/databases/SQL_Database.svg;shadow=1;" vertex="1" parent="1">
          <mxGeometry x="414.01" y="1119" width="23.98" height="31.97" as="geometry" />
        </mxCell>
        <mxCell id="ePm8Xnh-taZD7xGUpZaN-37" value="ACR DB" style="text;html=1;align=center;verticalAlign=middle;resizable=0;points=[];autosize=1;strokeColor=none;" vertex="1" parent="1">
          <mxGeometry x="395.99" y="1150.97" width="60" height="20" as="geometry" />
        </mxCell>
        <mxCell id="ePm8Xnh-taZD7xGUpZaN-38" value="Table - &lt;b&gt;ProjectTrackingDetail&lt;/b&gt;" style="text;html=1;align=center;verticalAlign=middle;resizable=0;points=[];autosize=1;strokeColor=none;" vertex="1" parent="1">
          <mxGeometry x="335" y="1170" width="180" height="20" as="geometry" />
        </mxCell>
        <mxCell id="ePm8Xnh-taZD7xGUpZaN-46" style="edgeStyle=orthogonalEdgeStyle;rounded=0;orthogonalLoop=1;jettySize=auto;html=1;entryX=0;entryY=0.5;entryDx=0;entryDy=0;" edge="1" parent="1" source="ePm8Xnh-taZD7xGUpZaN-41" target="ePm8Xnh-taZD7xGUpZaN-44">
          <mxGeometry relative="1" as="geometry" />
        </mxCell>
        <mxCell id="ePm8Xnh-taZD7xGUpZaN-41" value="" style="verticalLabelPosition=bottom;html=1;verticalAlign=top;align=center;strokeColor=none;fillColor=#00BEF2;shape=mxgraph.azure.storage_blob;" vertex="1" parent="1">
          <mxGeometry x="165" y="849.5" width="50" height="45" as="geometry" />
        </mxCell>
        <mxCell id="ePm8Xnh-taZD7xGUpZaN-42" value="ACR Storage&lt;br&gt;&lt;b&gt;C1ExceptionsForCloudOptInOut.json&lt;/b&gt;" style="text;html=1;align=center;verticalAlign=middle;resizable=0;points=[];autosize=1;strokeColor=none;" vertex="1" parent="1">
          <mxGeometry x="75" y="896" width="230" height="30" as="geometry" />
        </mxCell>
        <mxCell id="ePm8Xnh-taZD7xGUpZaN-48" value="" style="edgeStyle=orthogonalEdgeStyle;rounded=0;orthogonalLoop=1;jettySize=auto;html=1;" edge="1" parent="1" source="ePm8Xnh-taZD7xGUpZaN-44" target="ePm8Xnh-taZD7xGUpZaN-29">
          <mxGeometry relative="1" as="geometry">
            <Array as="points">
              <mxPoint x="427" y="910" />
              <mxPoint x="427" y="910" />
            </Array>
          </mxGeometry>
        </mxCell>
        <mxCell id="ePm8Xnh-taZD7xGUpZaN-50" value="YES" style="edgeLabel;html=1;align=center;verticalAlign=middle;resizable=0;points=[];" vertex="1" connectable="0" parent="ePm8Xnh-taZD7xGUpZaN-48">
          <mxGeometry x="-0.3266" y="1" relative="1" as="geometry">
            <mxPoint as="offset" />
          </mxGeometry>
        </mxCell>
        <mxCell id="ePm8Xnh-taZD7xGUpZaN-53" style="edgeStyle=orthogonalEdgeStyle;rounded=0;orthogonalLoop=1;jettySize=auto;html=1;exitX=1;exitY=0.5;exitDx=0;exitDy=0;" edge="1" parent="1" source="ePm8Xnh-taZD7xGUpZaN-44">
          <mxGeometry relative="1" as="geometry">
            <mxPoint x="590" y="940" as="targetPoint" />
          </mxGeometry>
        </mxCell>
        <mxCell id="ePm8Xnh-taZD7xGUpZaN-57" value="NO" style="edgeLabel;html=1;align=center;verticalAlign=middle;resizable=0;points=[];" vertex="1" connectable="0" parent="ePm8Xnh-taZD7xGUpZaN-53">
          <mxGeometry x="-0.621" relative="1" as="geometry">
            <mxPoint as="offset" />
          </mxGeometry>
        </mxCell>
        <mxCell id="ePm8Xnh-taZD7xGUpZaN-44" value="Exception is&lt;br&gt;in Opt-in exceptions list?" style="rhombus;whiteSpace=wrap;html=1;" vertex="1" parent="1">
          <mxGeometry x="360" y="832" width="130" height="80" as="geometry" />
        </mxCell>
        <mxCell id="ePm8Xnh-taZD7xGUpZaN-82" style="edgeStyle=orthogonalEdgeStyle;rounded=0;orthogonalLoop=1;jettySize=auto;html=1;entryX=0.5;entryY=0;entryDx=0;entryDy=0;" edge="1" parent="1" source="ePm8Xnh-taZD7xGUpZaN-51" target="ePm8Xnh-taZD7xGUpZaN-76">
          <mxGeometry relative="1" as="geometry" />
        </mxCell>
        <mxCell id="ePm8Xnh-taZD7xGUpZaN-51" value="&lt;b&gt;Opt-out&lt;/b&gt;&amp;nbsp;all clouds with the reason based on Opt-in exceptions list" style="shape=process;whiteSpace=wrap;html=1;backgroundOutline=1;size=0.058823529411764705;" vertex="1" parent="1">
          <mxGeometry x="500" y="942" width="170" height="48" as="geometry" />
        </mxCell>
        <mxCell id="ePm8Xnh-taZD7xGUpZaN-52" value="Contains list of exceptions&lt;br&gt;for opt in and opt out&lt;br&gt;respectively." style="text;html=1;align=center;verticalAlign=middle;resizable=0;points=[];autosize=1;strokeColor=none;fontStyle=2" vertex="1" parent="1">
          <mxGeometry x="115" y="926" width="150" height="50" as="geometry" />
        </mxCell>
        <mxCell id="ePm8Xnh-taZD7xGUpZaN-62" value="" style="edgeStyle=orthogonalEdgeStyle;rounded=0;orthogonalLoop=1;jettySize=auto;html=1;" edge="1" parent="1" source="ePm8Xnh-taZD7xGUpZaN-59" target="ePm8Xnh-taZD7xGUpZaN-61">
          <mxGeometry relative="1" as="geometry" />
        </mxCell>
        <mxCell id="ePm8Xnh-taZD7xGUpZaN-59" value="Get OSE Esimates for each Estimate Id" style="shape=process;whiteSpace=wrap;html=1;backgroundOutline=1;size=0.06451612903225806;" vertex="1" parent="1">
          <mxGeometry x="670" y="750" width="155" height="40" as="geometry" />
        </mxCell>
        <mxCell id="ePm8Xnh-taZD7xGUpZaN-64" value="" style="edgeStyle=orthogonalEdgeStyle;rounded=0;orthogonalLoop=1;jettySize=auto;html=1;" edge="1" parent="1" source="ePm8Xnh-taZD7xGUpZaN-61" target="ePm8Xnh-taZD7xGUpZaN-63">
          <mxGeometry relative="1" as="geometry" />
        </mxCell>
        <mxCell id="ePm8Xnh-taZD7xGUpZaN-67" value="YES" style="edgeLabel;html=1;align=center;verticalAlign=middle;resizable=0;points=[];" vertex="1" connectable="0" parent="ePm8Xnh-taZD7xGUpZaN-64">
          <mxGeometry x="-0.67" y="1" relative="1" as="geometry">
            <mxPoint x="-1" y="14" as="offset" />
          </mxGeometry>
        </mxCell>
        <mxCell id="ePm8Xnh-taZD7xGUpZaN-66" value="" style="edgeStyle=orthogonalEdgeStyle;rounded=0;orthogonalLoop=1;jettySize=auto;html=1;" edge="1" parent="1" source="ePm8Xnh-taZD7xGUpZaN-61" target="ePm8Xnh-taZD7xGUpZaN-65">
          <mxGeometry relative="1" as="geometry" />
        </mxCell>
        <mxCell id="ePm8Xnh-taZD7xGUpZaN-68" value="NO" style="edgeLabel;html=1;align=center;verticalAlign=middle;resizable=0;points=[];" vertex="1" connectable="0" parent="ePm8Xnh-taZD7xGUpZaN-66">
          <mxGeometry x="-0.6195" relative="1" as="geometry">
            <mxPoint as="offset" />
          </mxGeometry>
        </mxCell>
        <mxCell id="ePm8Xnh-taZD7xGUpZaN-61" value="Milestones&lt;br&gt;available?" style="rhombus;whiteSpace=wrap;html=1;" vertex="1" parent="1">
          <mxGeometry x="687.5" y="849.5" width="120" height="50" as="geometry" />
        </mxCell>
        <mxCell id="ePm8Xnh-taZD7xGUpZaN-83" style="edgeStyle=orthogonalEdgeStyle;rounded=0;orthogonalLoop=1;jettySize=auto;html=1;entryX=0.5;entryY=0;entryDx=0;entryDy=0;" edge="1" parent="1" source="ePm8Xnh-taZD7xGUpZaN-63" target="ePm8Xnh-taZD7xGUpZaN-76">
          <mxGeometry relative="1" as="geometry">
            <Array as="points">
              <mxPoint x="748" y="1020" />
              <mxPoint x="425" y="1020" />
            </Array>
          </mxGeometry>
        </mxCell>
        <mxCell id="ePm8Xnh-taZD7xGUpZaN-85" style="edgeStyle=orthogonalEdgeStyle;rounded=0;orthogonalLoop=1;jettySize=auto;html=1;exitX=0.75;exitY=1;exitDx=0;exitDy=0;entryX=0.5;entryY=0;entryDx=0;entryDy=0;" edge="1" parent="1" source="ePm8Xnh-taZD7xGUpZaN-63" target="ePm8Xnh-taZD7xGUpZaN-72">
          <mxGeometry relative="1" as="geometry" />
        </mxCell>
        <mxCell id="ePm8Xnh-taZD7xGUpZaN-63" value="&lt;b&gt;Opt-in&lt;/b&gt; respective cloud(s)" style="shape=process;whiteSpace=wrap;html=1;backgroundOutline=1;size=0.057692307692307696;" vertex="1" parent="1">
          <mxGeometry x="682.5" y="942" width="130" height="48" as="geometry" />
        </mxCell>
        <mxCell id="ePm8Xnh-taZD7xGUpZaN-84" style="edgeStyle=orthogonalEdgeStyle;rounded=0;orthogonalLoop=1;jettySize=auto;html=1;entryX=0.5;entryY=0;entryDx=0;entryDy=0;" edge="1" parent="1" source="ePm8Xnh-taZD7xGUpZaN-65" target="ePm8Xnh-taZD7xGUpZaN-76">
          <mxGeometry relative="1" as="geometry">
            <Array as="points">
              <mxPoint x="903" y="1020" />
              <mxPoint x="425" y="1020" />
            </Array>
          </mxGeometry>
        </mxCell>
        <mxCell id="ePm8Xnh-taZD7xGUpZaN-65" value="&lt;b&gt;Opt-out&lt;/b&gt;&lt;span&gt;&amp;nbsp;respective cloud(s) with reason as &quot;not in scope&quot;&lt;/span&gt;" style="shape=process;whiteSpace=wrap;html=1;backgroundOutline=1;size=0.03225806451612903;" vertex="1" parent="1">
          <mxGeometry x="825" y="942" width="155" height="48" as="geometry" />
        </mxCell>
        <mxCell id="ePm8Xnh-taZD7xGUpZaN-72" value="Import CCB" style="shape=parallelogram;perimeter=parallelogramPerimeter;whiteSpace=wrap;html=1;fixedSize=1;" vertex="1" parent="1">
          <mxGeometry x="687.5" y="1070" width="180" height="60" as="geometry" />
        </mxCell>
        <mxCell id="ePm8Xnh-taZD7xGUpZaN-79" value="" style="edgeStyle=orthogonalEdgeStyle;rounded=0;orthogonalLoop=1;jettySize=auto;html=1;" edge="1" parent="1" source="ePm8Xnh-taZD7xGUpZaN-76">
          <mxGeometry relative="1" as="geometry">
            <mxPoint x="425" y="1120" as="targetPoint" />
          </mxGeometry>
        </mxCell>
        <mxCell id="ePm8Xnh-taZD7xGUpZaN-76" value="Bind recommendations to the object to save in DB" style="shape=process;whiteSpace=wrap;html=1;backgroundOutline=1;size=0.06666666666666667;" vertex="1" parent="1">
          <mxGeometry x="350" y="1050" width="150" height="50" as="geometry" />
        </mxCell>
      </root>
    </mxGraphModel>
  </diagram>
</mxfile>
